<svg width="25" height="25" viewBox="0 0 25 25" fill="none" xmlns="http://www.w3.org/2000/svg">
<g clip-path="url(#clip0_2283_68202)">
<path d="M18.8145 2.76562C18.0188 2.76563 17.2557 3.0817 16.6931 3.6443C16.1305 4.20691 15.8145 4.96998 15.8145 5.76562C15.8151 5.95378 15.8334 6.14145 15.8691 6.32617L8.75391 10.4766C8.21196 10.0175 7.52471 9.76555 6.81445 9.76562C6.0188 9.76562 5.25574 10.0817 4.69313 10.6443C4.13052 11.2069 3.81445 11.97 3.81445 12.7656C3.81445 13.5613 4.13052 14.3243 4.69313 14.8869C5.25574 15.4496 6.0188 15.7656 6.81445 15.7656C7.52362 15.7642 8.20936 15.5117 8.75 15.0527L15.8691 19.2051C15.8334 19.3898 15.8151 19.5775 15.8145 19.7656C15.8145 20.5613 16.1305 21.3243 16.6931 21.8869C17.2557 22.4496 18.0188 22.7656 18.8145 22.7656C19.6101 22.7656 20.3732 22.4496 20.9358 21.8869C21.4984 21.3243 21.8145 20.5613 21.8145 19.7656C21.8145 18.97 21.4984 18.2069 20.9358 17.6443C20.3732 17.0817 19.6101 16.7656 18.8145 16.7656C18.1046 16.7666 17.4181 17.0192 16.877 17.4785L9.75977 13.3262C9.79553 13.1415 9.81384 12.9538 9.81445 12.7656C9.81384 12.5775 9.79553 12.3898 9.75977 12.2051L16.875 8.05469C17.4169 8.51378 18.1042 8.7657 18.8145 8.76562C19.6101 8.76562 20.3732 8.44955 20.9358 7.88695C21.4984 7.32434 21.8145 6.56127 21.8145 5.76562C21.8145 4.96998 21.4984 4.20691 20.9358 3.6443C20.3732 3.0817 19.6101 2.76563 18.8145 2.76562Z" fill="#153445"/>
</g>
<defs>
<clipPath id="clip0_2283_68202">
<rect width="24" height="24" fill="white" transform="translate(0.814453 0.765625)"/>
</clipPath>
</defs>
</svg>
