<svg width="388" height="186" viewBox="0 0 388 186" fill="none" xmlns="http://www.w3.org/2000/svg">
<path d="M1 152L-2 147V186H388V101L381 99L377 59L366 47V43H361L357 45L353 40V43L344 25L342 16L341 23L338 20L332 40L328 38V63L320 55V66L317 61L311 70V61L306 66V38L302 40V30L300 36V9L294 0L291 16V7L287 11L285 5L283 16L281 33L276 41L275 33L273 36L271 25L268 30L266 22L263 25L260 41L254 90L251 77L247 89V98L244 115L229 89V98L225 96L222 101L218 96L216 101L213 98L209 90L204 94V105L201 110V118L196 114V122H192L190 128L186 126V118L181 113L179 117V122L174 131L169 128L165 134L162 136V131L159 134L157 126L154 118L150 126V154L146 152L144 148L137 144L132 154L129 144L123 156L119 155L116 160L113 152L110 149L107 152L103 147L94 158L88 156L87 160L83 155L75 165V162L72 163L70 167L64 160L59 162L55 163V158L53 155L52 134L47 131V126L38 138L34 148L27 152L20 145L18 149L16 155H13L11 158L8 155L5 158L3 151L1 152Z" fill="url(#paint0_linear_3138_83040)"/>
<defs>
<linearGradient id="paint0_linear_3138_83040" x1="193" y1="0" x2="193" y2="186" gradientUnits="userSpaceOnUse">
<stop stop-color="#153445"/>
<stop offset="1" stop-color="#3A7391" stop-opacity="0"/>
</linearGradient>
</defs>
</svg>
