<svg width="20" height="21" viewBox="0 0 20 21" fill="none" xmlns="http://www.w3.org/2000/svg">
<path d="M9 16.5H11V14.5H9V16.5ZM10 0.5C4.48 0.5 0 4.98 0 10.5C0 16.02 4.48 20.5 10 20.5C15.52 20.5 20 16.02 20 10.5C20 4.98 15.52 0.5 10 0.5ZM10 18.5C5.59 18.5 2 14.91 2 10.5C2 6.09 5.59 2.5 10 2.5C14.41 2.5 18 6.09 18 10.5C18 14.91 14.41 18.5 10 18.5ZM10 4.5C7.79 4.5 6 6.29 6 8.5H8C8 7.4 8.9 6.5 10 6.5C11.1 6.5 12 7.4 12 8.5C12 10.5 9 10.25 9 13.5H11C11 11.25 14 11 14 8.5C14 6.29 12.21 4.5 10 4.5Z" fill="black"/>
</svg>
