<svg width="60" height="60" viewBox="0 0 60 60" fill="none" xmlns="http://www.w3.org/2000/svg">
<path d="M0 30C0 13.4315 13.4315 0 30 0V0C46.5685 0 60 13.4315 60 30V30C60 46.5685 46.5685 60 30 60V60C13.4315 60 0 46.5685 0 30V30Z" fill="#EBEBEB"/>
<path d="M43 29C43 36.6732 36.6732 43 29 43C21.3268 43 16 36.6732 16 29C16 21.3268 21.3268 16 29 16C36.6732 16 43 21.3268 43 29Z" stroke="white" stroke-width="2"/>
<path d="M34 26C34 28.5577 31.5577 31 29 31C26.4423 31 25 28.5577 25 26C25 23.4423 26.4423 22 29 22C31.5577 22 34 23.4423 34 26Z" stroke="white" stroke-width="2"/>
<path d="M20 39C21.1372 36.0533 23.6952 36 29 36C34.3505 36 36.8777 36.0017 38 39" stroke="white" stroke-width="2" stroke-linecap="round"/>
</svg>
