<svg width="21" height="20" viewBox="0 0 21 20" fill="none" xmlns="http://www.w3.org/2000/svg">
<path d="M10.4648 0C4.94484 0 0.464844 4.48 0.464844 10C0.464844 15.52 4.94484 20 10.4648 20C15.9848 20 20.4648 15.52 20.4648 10C20.4648 4.48 15.9848 0 10.4648 0ZM11.4648 17H9.46484V15H11.4648V17ZM13.5348 9.25L12.6348 10.17C11.9148 10.9 11.4648 11.5 11.4648 13H9.46484V12.5C9.46484 11.4 9.91484 10.4 10.6348 9.67L11.8748 8.41C12.2448 8.05 12.4648 7.55 12.4648 7C12.4648 5.9 11.5648 5 10.4648 5C9.36484 5 8.46484 5.9 8.46484 7H6.46484C6.46484 4.79 8.25484 3 10.4648 3C12.6748 3 14.4648 4.79 14.4648 7C14.4648 7.88 14.1048 8.68 13.5348 9.25Z" fill="#979797"/>
</svg>
